<svg xmlns="http://www.w3.org/2000/svg" viewBox="0 0 1000 360">
<defs>
 <linearGradient id="bg" x1="0" y1="0" x2="1" y2="1"><stop stop-color="#03151c"/><stop offset=".55" stop-color="#06363c"/><stop offset="1" stop-color="#021018"/></linearGradient>
 <linearGradient id="boat" x1="0" y1="0" x2="1" y2="1"><stop stop-color="#093c46"/><stop offset=".5" stop-color="#17d6c1"/><stop offset="1" stop-color="#06323b"/></linearGradient>
 <linearGradient id="suit" x1="0" y1="0" x2="1" y2="1"><stop stop-color="#0f423e"/><stop offset=".5" stop-color="#1d8e75"/><stop offset="1" stop-color="#041c22"/></linearGradient>
 <filter id="glow"><feGaussianBlur stdDeviation="5" result="b"/><feMerge><feMergeNode in="b"/><feMergeNode in="SourceGraphic"/></feMerge></filter>
 <filter id="soft"><feGaussianBlur stdDeviation="9"/></filter>
 <pattern id="rain" width="52" height="82" patternUnits="userSpaceOnUse"><text x="4" y="16" fill="#2dffcb" opacity=".18" font-size="12" font-family="monospace">01</text><text x="25" y="45" fill="#2dffcb" opacity=".10" font-size="9" font-family="monospace">10</text><text x="9" y="72" fill="#2dffcb" opacity=".12" font-size="8" font-family="monospace">001</text></pattern>
</defs>
<rect width="1000" height="360" fill="url(#bg)"/>
<rect width="1000" height="360" fill="url(#rain)" opacity=".65"/>
<path d="M0 296 C150 245 255 285 402 250 S683 225 1000 274" fill="none" stroke="#2dffcb" opacity=".18" stroke-width="4"/>
<path d="M0 319 C180 277 308 318 485 277 S776 267 1000 304" fill="none" stroke="#2dffcb" opacity=".11" stroke-width="2"/>
<g opacity=".55" filter="url(#soft)" fill="#35ffd2">
 <ellipse cx="690" cy="243" rx="260" ry="56"/><ellipse cx="781" cy="194" rx="165" ry="35"/>
</g>
<g transform="translate(365 34)">
 <g filter="url(#glow)">
  <path d="M55 212 L408 175 L564 210 L500 258 L134 263 L31 236 Z" fill="url(#boat)" stroke="#77ffe7" stroke-width="5"/>
  <path d="M130 202 L347 170 L438 188 L395 213 L168 229 Z" fill="#05252c" stroke="#31ebd4" stroke-width="3"/>
  <path d="M480 211 L602 208 L569 229 L503 246 Z" fill="#0e6d6b" stroke="#7affeb" stroke-width="3"/>
  <path d="M221 116 C240 72 285 51 323 74 C357 95 352 140 321 158 L381 191 L266 201 L210 154 Z" fill="url(#suit)" stroke="#61ffe1" stroke-width="4"/>
  <path d="M274 78 C286 47 329 41 349 66 C365 87 349 115 321 119 C297 123 266 107 274 78 Z" fill="#06191e" stroke="#9affec" stroke-width="4"/>
  <path d="M288 74 L342 82 L326 103 L281 96 Z" fill="#0fb5b0" opacity=".48"/>
  <path d="M237 142 L172 183 M322 149 L405 177" stroke="#9affec" stroke-width="9" stroke-linecap="round"/>
 </g>
 <g fill="none" stroke="#48ffe0" opacity=".55">
  <path d="M28 232 C-40 224 -102 207 -157 183" stroke-width="5"/>
  <path d="M37 247 C-54 251 -127 268 -196 286" stroke-width="3"/>
  <path d="M58 263 C-23 286 -85 312 -138 341" stroke-width="2"/>
 </g>
 <g fill="#baffef" opacity=".55">
  <circle cx="31" cy="219" r="4"/><circle cx="-8" cy="203" r="3"/><circle cx="-39" cy="190" r="5"/><circle cx="3" cy="270" r="4"/><circle cx="-58" cy="284" r="3"/><circle cx="-102" cy="296" r="4"/>
 </g>
</g>
<g opacity=".55" stroke="#2dffcb" fill="none">
 <path d="M705 38 H947 V84" stroke-width="2"/><path d="M735 48 H922" stroke-width="1"/>
 <path d="M63 74 H265" stroke-width="1"/><path d="M63 83 H203" stroke-width="1"/>
</g>
</svg>